mtllib ./Pillar1x1_round.mtl
o Pillar1x1_round
v 0.375 0 0.649519
v 0.649519 0 0.375
v 0.75 0 0
v 0.649519 0 -0.375
v 0.375 0 -0.649519
v 0 0 -0.75
v -0.375 0 -0.649519
v -0.649519 0 -0.375
v -0.75 0 0
v -0.649519 0 0.375
v -0.375 0 0.649519
v 0 0 0.75
v 0 4 0.75
v -0.375 4 0.649519
v -0.649519 4 0.375
v -0.75 4 0
v -0.649519 4 -0.375
v -0.375 4 -0.649519
v 0 4 -0.75
v 0.375 4 -0.649519
v 0.649519 4 -0.375
v 0.75 4 0
v 0.649519 4 0.375
v 0.375 4 0.649519

vt 0.375 -0.649519
vt 0.649519 -0.375
vt 0.75 0
vt 0.649519 0.375
vt 0.375 0.649519
vt 0 0.75
vt -0.375 0.649519
vt -0.649519 0.375
vt -0.75 0
vt -0.649519 -0.375
vt -0.375 -0.649519
vt 0 -0.75
vt 0.375 0
vt 0 0
vt 0 4
vt 0.375 4
vt -0.375 0
vt -0.375 4
vt 0.649519 0
vt 0.649519 4
vt -0.649519 0
vt -0.649519 4

vn 0 -1 0
vn 0 1 0
vn 0.2588193 0 0.9659258
vn -0.2588193 0 0.9659258
vn -0.7071068 0 0.7071068
vn -0.9659258 0 0.2588193
vn -0.9659258 0 -0.2588193
vn -0.7071068 0 -0.7071068
vn -0.2588193 0 -0.9659258
vn 0.2588193 0 -0.9659258
vn 0.7071068 0 -0.7071068
vn 0.9659258 0 -0.2588193
vn 0.9659258 0 0.2588193
vn 0.7071068 0 0.7071068

usemtl UModeler_RulerGrid_Gray
f 3/3/1 2/2/1 1/1/1
f 4/4/1 3/3/1 1/1/1
f 5/5/1 4/4/1 1/1/1
f 6/6/1 5/5/1 1/1/1
f 7/7/1 6/6/1 1/1/1
f 8/8/1 7/7/1 1/1/1
f 9/9/1 8/8/1 1/1/1
f 10/10/1 9/9/1 1/1/1
f 11/11/1 10/10/1 1/1/1
f 12/12/1 11/11/1 1/1/1
f 15/4/2 14/5/2 13/6/2
f 16/3/2 15/4/2 13/6/2
f 17/2/2 16/3/2 13/6/2
f 18/1/2 17/2/2 13/6/2
f 19/12/2 18/1/2 13/6/2
f 20/11/2 19/12/2 13/6/2
f 21/10/2 20/11/2 13/6/2
f 22/9/2 21/10/2 13/6/2
f 23/8/2 22/9/2 13/6/2
f 24/7/2 23/8/2 13/6/2
f 13/15/3 12/14/3 1/13/3
f 24/16/3 13/15/3 1/13/3
f 14/18/4 11/17/4 12/14/4
f 13/15/4 14/18/4 12/14/4
f 15/16/5 10/13/5 11/19/5
f 14/20/5 15/16/5 11/19/5
f 16/15/6 9/14/6 10/13/6
f 15/16/6 16/15/6 10/13/6
f 17/18/7 8/17/7 9/14/7
f 16/15/7 17/18/7 9/14/7
f 18/22/8 7/21/8 8/17/8
f 17/18/8 18/22/8 8/17/8
f 19/15/9 6/14/9 7/13/9
f 18/16/9 19/15/9 7/13/9
f 20/18/10 5/17/10 6/14/10
f 19/15/10 20/18/10 6/14/10
f 21/16/11 4/13/11 5/19/11
f 20/20/11 21/16/11 5/19/11
f 22/15/12 3/14/12 4/13/12
f 21/16/12 22/15/12 4/13/12
f 23/18/13 2/17/13 3/14/13
f 22/15/13 23/18/13 3/14/13
f 24/22/14 1/21/14 2/17/14
f 23/18/14 24/22/14 2/17/14

