mtllib ./Wall_3x4_entrySmall.mtl
o Wall_3x4_entrySmall
v 0.5 3.5 0.5
v 2.5 3.5 0.5
v 2.5 3.5 0
v 0.5 3.5 0
v 0.5 0 0
v 0.5 0 0.5
v 0.5 4 0
v 2.5 4 0
v 2.5 4 0.5
v 0.5 4 0.5
v 0 3.5 0.5
v 0 0 0.5
v 0 0 0
v 0 3.5 0
v 2.5 0 0.5
v 2.5 0 0
v 3 3.5 0
v 3 0 0
v 3 0 0.5
v 3 3.5 0.5
v 0 3.75 0.5
v 0 3.75 0
v 0 4 0
v 0 4 0.5
v 2.5 3.75 0
v 0.5 3.75 0
v 3 3.75 0
v 3 3.75 0.5
v 3 4 0.5
v 3 4 0
v 0.5 3.75 0.5
v 2.5 3.75 0.5
v 0.25 3.75 0.5
v 0.25 4 0.5
v 0.25 4 0
v 0.25 3.75 0
v 0.25 3.5 0
v 0.25 0 0
v 0.25 0 0.5
v 0.25 3.5 0.5
v 2.75 4 0.5
v 2.75 3.75 0.5
v 2.75 3.5 0.5
v 2.75 0 0.5
v 2.75 0 0
v 2.75 3.5 0
v 2.75 3.75 0
v 2.75 4 0
v 0.5 3.75 0.75
v 0.25 3.75 0.75
v 0.25 3.5 0.75
v 0.5 3.5 0.75
v 2.5 3.5 0.75
v 2.5 3.75 0.75
v 2.75 3.75 0.75
v 2.75 3.5 0.75
v 2.5 0 0.75
v 2.75 0 0.75
v 0.5 0 0.75
v 0.25 0 0.75
v 2.5 3.75 -0.25
v 2.75 3.75 -0.25
v 2.75 3.5 -0.25
v 2.5 0 -0.25
v 2.5 3.5 -0.25
v 2.75 0 -0.25
v 0.5 3.5 -0.25
v 0.5 3.75 -0.25
v 0.25 3.75 -0.25
v 0.25 3.5 -0.25
v 0.5 0 -0.25
v 0.25 0 -0.25

vt 0.5 -0.5
vt 2.5 -0.5
vt 2.5 0
vt 0.5 0
vt 0 3.5
vt 0 0
vt -0.5 0
vt -0.5 3.5
vt -2.5 0
vt -2.5 0.5
vt -0.5 0.5
vt 0.5 3.5
vt 0.5 3.75
vt 0 3.75
vt 0 4
vt 0.5 4
vt -2.5 3.75
vt -2.5 4
vt -0.5 4
vt -0.5 3.75
vt 2.5 4
vt 2.5 3.75
vt 0.25 3.75
vt 0.25 4
vt -0.25 0.5
vt 0 0.5
vt -0.25 0
vt -0.25 4
vt -0.25 3.75
vt -0.25 3.5
vt 0.25 0
vt 0 -0.5
vt 0.25 -0.5
vt 0.25 3.5
vt 2.75 4
vt 3 4
vt 3 3.75
vt 2.75 3.75
vt 3 3.5
vt 2.75 3.5
vt 3 0
vt 2.75 0
vt 2.75 -0.5
vt 3 -0.5
vt -2.75 0
vt -3 0
vt -3 3.5
vt -2.75 3.5
vt -3 3.75
vt -2.75 3.75
vt -3 4
vt -2.75 4
vt -3 0.5
vt -2.75 0.5
vt -0.5 0.75
vt -0.25 0.75
vt 0.75 3.75
vt 0.75 3.5
vt 0.5 -0.75
vt 2.5 -0.75
vt -2.5 0.75
vt -2.75 0.75
vt -0.75 3.5
vt -0.75 3.75
vt 2.75 -0.75
vt 0.75 0
vt -0.75 0
vt 0.25 -0.75
vt 2.5 3.5
vt -2.5 -0.25
vt -2.75 -0.25
vt 2.75 0.25
vt 2.5 0.25
vt 0.5 0.25
vt -0.5 -0.25
vt -0.25 -0.25
vt 0.25 0.25
vt -2.5 3.5

vn 0 -1 0
vn 1 0 0
vn 0 1 0
vn -1 0 0
vn 0 0 -1
vn 0 0 1

usemtl UModeler_RulerGrid_Gray
f 3/3/1 2/2/1 1/1/1
f 4/4/1 3/3/1 1/1/1
f 6/7/2 5/6/2 4/5/2
f 1/8/2 6/7/2 4/5/2
f 9/10/3 8/9/3 7/7/3
f 10/11/3 9/10/3 7/7/3
f 13/6/4 12/4/4 11/12/4
f 14/5/4 13/6/4 11/12/4
f 16/6/4 15/4/4 2/12/4
f 3/5/4 16/6/4 2/12/4
f 19/7/2 18/6/2 17/5/2
f 20/8/2 19/7/2 17/5/2
f 14/5/4 11/12/4 21/13/4
f 22/14/4 14/5/4 21/13/4
f 24/16/4 23/15/4 22/14/4
f 21/13/4 24/16/4 22/14/4
f 7/19/5 8/18/5 25/17/5
f 26/20/5 7/19/5 25/17/5
f 20/8/2 17/5/2 27/14/2
f 28/20/2 20/8/2 27/14/2
f 30/15/2 29/19/2 28/20/2
f 27/14/2 30/15/2 28/20/2
f 9/21/6 10/16/6 31/13/6
f 32/22/6 9/21/6 31/13/6
f 24/15/6 21/14/6 33/23/6
f 34/24/6 24/15/6 33/23/6
f 31/13/6 10/16/6 34/24/6
f 33/23/6 31/13/6 34/24/6
f 23/6/3 24/26/3 34/25/3
f 35/27/3 23/6/3 34/25/3
f 10/11/3 7/7/3 35/27/3
f 34/25/3 10/11/3 35/27/3
f 22/14/5 23/15/5 35/28/5
f 36/29/5 22/14/5 35/28/5
f 7/19/5 26/20/5 36/29/5
f 35/28/5 7/19/5 36/29/5
f 14/5/5 22/14/5 36/29/5
f 37/30/5 14/5/5 36/29/5
f 13/6/5 14/5/5 37/30/5
f 38/27/5 13/6/5 37/30/5
f 12/32/1 13/6/1 38/31/1
f 39/33/1 12/32/1 38/31/1
f 5/4/1 6/1/1 39/33/1
f 38/31/1 5/4/1 39/33/1
f 11/5/6 12/6/6 39/31/6
f 40/34/6 11/5/6 39/31/6
f 21/14/6 11/5/6 40/34/6
f 33/23/6 21/14/6 40/34/6
f 28/37/6 29/36/6 41/35/6
f 42/38/6 28/37/6 41/35/6
f 9/21/6 32/22/6 42/38/6
f 41/35/6 9/21/6 42/38/6
f 20/39/6 28/37/6 42/38/6
f 43/40/6 20/39/6 42/38/6
f 19/41/6 20/39/6 43/40/6
f 44/42/6 19/41/6 43/40/6
f 18/41/1 19/44/1 44/43/1
f 45/42/1 18/41/1 44/43/1
f 15/2/1 16/3/1 45/42/1
f 44/43/1 15/2/1 45/42/1
f 17/47/5 18/46/5 45/45/5
f 46/48/5 17/47/5 45/45/5
f 27/49/5 17/47/5 46/48/5
f 47/50/5 27/49/5 46/48/5
f 30/51/5 27/49/5 47/50/5
f 48/52/5 30/51/5 47/50/5
f 25/17/5 8/18/5 48/52/5
f 47/50/5 25/17/5 48/52/5
f 29/53/3 30/46/3 48/45/3
f 41/54/3 29/53/3 48/45/3
f 8/9/3 9/10/3 41/54/3
f 48/45/3 8/9/3 41/54/3
f 50/56/3 49/55/3 31/11/3
f 33/25/3 50/56/3 31/11/3
f 51/58/4 50/57/4 33/13/4
f 40/12/4 51/58/4 33/13/4
f 53/60/1 52/59/1 1/1/1
f 2/2/1 53/60/1 1/1/1
f 49/55/3 54/61/3 32/10/3
f 31/11/3 49/55/3 32/10/3
f 54/61/3 55/62/3 42/54/3
f 32/10/3 54/61/3 42/54/3
f 55/64/2 56/63/2 43/8/2
f 42/20/2 55/64/2 43/8/2
f 58/65/1 57/60/1 15/2/1
f 44/43/1 58/65/1 15/2/1
f 57/66/4 53/58/4 2/12/4
f 15/4/4 57/66/4 2/12/4
f 56/63/2 58/67/2 44/7/2
f 43/8/2 56/63/2 44/7/2
f 52/63/2 59/67/2 6/7/2
f 1/8/2 52/63/2 6/7/2
f 59/59/1 60/68/1 39/33/1
f 6/1/1 59/59/1 39/33/1
f 60/66/4 51/58/4 40/12/4
f 39/4/4 60/66/4 40/12/4
f 52/12/6 49/13/6 50/23/6
f 51/34/6 52/12/6 50/23/6
f 52/12/6 53/69/6 54/22/6
f 49/13/6 52/12/6 54/22/6
f 54/22/6 53/69/6 56/40/6
f 55/38/6 54/22/6 56/40/6
f 53/69/6 57/3/6 58/42/6
f 56/40/6 53/69/6 58/42/6
f 59/4/6 52/12/6 51/34/6
f 60/31/6 59/4/6 51/34/6
f 62/71/3 61/70/3 25/9/3
f 47/45/3 62/71/3 25/9/3
f 63/34/2 62/23/2 47/14/2
f 46/5/2 63/34/2 47/14/2
f 65/30/4 64/27/4 16/6/4
f 3/5/4 65/30/4 16/6/4
f 64/73/1 66/72/1 45/42/1
f 16/3/1 64/73/1 45/42/1
f 66/31/2 63/34/2 46/5/2
f 45/6/2 66/31/2 46/5/2
f 67/74/1 65/73/1 3/3/1
f 4/4/1 67/74/1 3/3/1
f 61/70/3 68/75/3 26/7/3
f 25/9/3 61/70/3 26/7/3
f 68/75/3 69/76/3 36/27/3
f 26/7/3 68/75/3 36/27/3
f 69/29/4 70/30/4 37/5/4
f 36/14/4 69/29/4 37/5/4
f 72/77/1 71/74/1 5/4/1
f 38/31/1 72/77/1 5/4/1
f 71/31/2 67/34/2 4/5/2
f 5/6/2 71/31/2 4/5/2
f 70/30/4 72/27/4 38/6/4
f 37/5/4 70/30/4 38/6/4
f 65/78/5 61/17/5 62/50/5
f 63/48/5 65/78/5 62/50/5
f 64/9/5 65/78/5 63/48/5
f 66/45/5 64/9/5 63/48/5
f 65/78/5 67/8/5 68/20/5
f 61/17/5 65/78/5 68/20/5
f 68/20/5 67/8/5 70/30/5
f 69/29/5 68/20/5 70/30/5
f 67/8/5 71/7/5 72/27/5
f 70/30/5 67/8/5 72/27/5

