mtllib ./Pillar1x1_edgy.mtl
o Pillar1x1_edgy
v 0 0 0
v 1 0 0
v 1 4 0
v 0 4 0
v 0 0 1
v 1 0 1
v 1 4 1
v 0 4 1

vt 0 0
vt -1 0
vt -1 4
vt 0 4
vt 0 -1
vt 1 -1
vt 1 0
vt 1 4
vt 0 1
vt -1 1

vn 0 0 -1
vn 0 -1 0
vn 1 0 0
vn 0 0 1
vn -1 0 0
vn 0 1 0

usemtl UModeler_RulerGrid_Gray
f 3/3/1 2/2/1 1/1/1
f 4/4/1 3/3/1 1/1/1
f 2/7/2 6/6/2 5/5/2
f 1/1/2 2/7/2 5/5/2
f 7/3/3 6/2/3 2/1/3
f 3/4/3 7/3/3 2/1/3
f 8/4/4 5/1/4 6/7/4
f 7/8/4 8/4/4 6/7/4
f 4/4/5 1/1/5 5/7/5
f 8/8/5 4/4/5 5/7/5
f 3/2/6 4/1/6 8/9/6
f 7/10/6 3/2/6 8/9/6

